<svg width="50" height="51" viewBox="0 0 50 51" fill="none" xmlns="http://www.w3.org/2000/svg">
<rect x="17.0942" y="29.3359" width="5" height="10" rx="2.5" fill="#F20053"/>
<rect x="27.0942" y="29.3359" width="5" height="10" rx="2.5" fill="#F20053"/>
<path d="M42.5389 10.2006H39.0765L34.7359 1.5445C34.6032 1.22599 34.4063 0.938256 34.1575 0.699282C33.9086 0.460308 33.6131 0.275229 33.2895 0.155612C32.9659 0.035995 32.621 -0.0155898 32.2766 0.00408141C31.9321 0.0237527 31.5954 0.114257 31.2875 0.269939C30.9796 0.425621 30.7071 0.643134 30.4871 0.908886C30.267 1.17464 30.1042 1.48292 30.0087 1.81446C29.9132 2.146 29.887 2.49367 29.932 2.83576C29.9769 3.17785 30.0919 3.50699 30.2698 3.80262L33.4563 10.2006H16.4953L19.6817 3.80262C19.9253 3.21778 19.9385 2.56247 19.7189 1.96824C19.4993 1.37401 19.063 0.884871 18.4976 0.599015C17.9323 0.31316 17.2797 0.251756 16.6709 0.427131C16.0622 0.602506 15.5423 1.00168 15.2157 1.5445L10.8751 10.2006H7.41261C5.63921 10.2276 3.93229 10.8799 2.5929 12.0426C1.25352 13.2052 0.367713 14.8035 0.0917124 16.5555C-0.184288 18.3075 0.167248 20.1007 1.08432 21.6188C2.00139 23.1369 3.42509 24.2824 5.10431 24.8533L6.96099 43.5706C7.14821 45.4337 8.02317 47.1602 9.41499 48.4128C10.8068 49.6655 12.6156 50.3544 14.4881 50.345H35.5137C37.3861 50.3544 39.1949 49.6655 40.5867 48.4128C41.9785 47.1602 42.8535 45.4337 43.0407 43.5706L44.8974 24.8533C46.5803 24.2807 48.0062 23.131 48.9226 21.6078C49.8391 20.0847 50.1868 18.2863 49.9043 16.5312C49.6218 14.7762 48.7273 13.1778 47.3792 12.0191C46.0311 10.8604 44.3165 10.2162 42.5389 10.2006ZM37.9976 43.0688C37.9352 43.6899 37.6435 44.2653 37.1796 44.6829C36.7156 45.1004 36.1127 45.3301 35.4886 45.3269H14.463C13.8388 45.3301 13.2359 45.1004 12.7719 44.6829C12.308 44.2653 12.0163 43.6899 11.9539 43.0688L10.1725 25.2548H39.779L37.9976 43.0688ZM42.5389 20.2367H7.41261C6.74718 20.2367 6.109 19.9724 5.63846 19.5018C5.16793 19.0313 4.90359 18.3931 4.90359 17.7277C4.90359 17.0623 5.16793 16.4241 5.63846 15.9535C6.109 15.483 6.74718 15.2187 7.41261 15.2187H42.5389C43.2043 15.2187 43.8425 15.483 44.3131 15.9535C44.7836 16.4241 45.0479 17.0623 45.0479 17.7277C45.0479 18.3931 44.7836 19.0313 44.3131 19.5018C43.8425 19.9724 43.2043 20.2367 42.5389 20.2367Z" fill="#1057C0"/>
</svg>
