<svg width="22" height="22" viewBox="0 0 22 22" fill="none" xmlns="http://www.w3.org/2000/svg">
<g clip-path="url(#clip0)">
<path d="M11.2047 21.4005C11.1358 21.4005 11.0669 21.4005 10.9976 21.4002C9.3672 21.4042 7.86074 21.3628 6.3957 21.2736C5.05254 21.1918 3.82649 20.7277 2.8499 19.9314C1.90759 19.163 1.2641 18.124 0.937354 16.8437C0.652979 15.7291 0.637903 14.6349 0.623462 13.5766C0.612988 12.8172 0.602197 11.9174 0.599976 11.0024C0.602197 10.0836 0.612988 9.18383 0.623462 8.42449C0.637903 7.36634 0.652979 6.27216 0.937354 5.15735C1.2641 3.87703 1.90759 2.83808 2.8499 2.06969C3.82649 1.27338 5.05254 0.809207 6.39586 0.727481C7.8609 0.638455 9.36768 0.596878 11.0016 0.600845C12.6324 0.597354 14.1384 0.638455 15.6035 0.727481C16.9466 0.809207 18.1727 1.27338 19.1493 2.06969C20.0917 2.83808 20.7351 3.87703 21.0618 5.15735C21.3462 6.272 21.3613 7.36634 21.3757 8.42449C21.3862 9.18383 21.3971 10.0836 21.3992 10.9986V11.0024C21.3971 11.9174 21.3862 12.8172 21.3757 13.5766C21.3613 14.6347 21.3463 15.7289 21.0618 16.8437C20.7351 18.124 20.0917 19.163 19.1493 19.9314C18.1727 20.7277 16.9466 21.1918 15.6035 21.2736C14.2005 21.359 12.7592 21.4005 11.2047 21.4005ZM10.9976 19.7752C12.6015 19.779 14.0741 19.7386 15.5047 19.6516C16.5204 19.5899 17.401 19.2603 18.1224 18.672C18.7892 18.1282 19.2484 17.3779 19.4873 16.4419C19.724 15.514 19.7377 14.5178 19.7509 13.5543C19.7612 12.8001 19.772 11.9067 19.7742 11.0005C19.772 10.0942 19.7612 9.20097 19.7509 8.44671C19.7377 7.48329 19.724 6.48703 19.4873 5.559C19.2484 4.62304 18.7892 3.87274 18.1224 3.32891C17.401 2.7408 16.5204 2.4112 15.5047 2.34947C14.0741 2.26234 12.6015 2.2222 11.0014 2.22569C9.39783 2.22188 7.92501 2.26234 6.49441 2.34947C5.47878 2.4112 4.59821 2.7408 3.87679 3.32891C3.20997 3.87274 2.75072 4.62304 2.51189 5.559C2.27512 6.48703 2.26147 7.48313 2.2483 8.44671C2.23799 9.2016 2.2272 10.0955 2.22498 11.0024C2.2272 11.9054 2.23799 12.7995 2.2483 13.5543C2.26147 14.5178 2.27512 15.514 2.51189 16.4419C2.75072 17.3779 3.20997 18.1282 3.87679 18.672C4.59821 19.2601 5.47878 19.5897 6.49441 19.6514C7.92501 19.7386 9.39814 19.7792 10.9976 19.7752ZM10.9589 16.0787C8.15892 16.0787 5.88075 13.8006 5.88075 11.0005C5.88075 8.20042 8.15892 5.9224 10.9589 5.9224C13.759 5.9224 16.037 8.20042 16.037 11.0005C16.037 13.8006 13.759 16.0787 10.9589 16.0787ZM10.9589 7.5474C9.05489 7.5474 7.50575 9.09655 7.50575 11.0005C7.50575 12.9045 9.05489 14.4537 10.9589 14.4537C12.863 14.4537 14.412 12.9045 14.412 11.0005C14.412 9.09655 12.863 7.5474 10.9589 7.5474ZM16.6057 4.2974C15.9327 4.2974 15.387 4.84298 15.387 5.51615C15.387 6.18932 15.9327 6.7349 16.6057 6.7349C17.2789 6.7349 17.8245 6.18932 17.8245 5.51615C17.8245 4.84298 17.2789 4.2974 16.6057 4.2974Z" fill="white"/>
</g>
<defs>
<clipPath id="clip0">
<rect width="20.8" height="20.8" fill="white" transform="translate(0.599976 0.600098)"/>
</clipPath>
</defs>
</svg>
