<svg width="284" height="51" viewBox="0 0 284 51" fill="none" xmlns="http://www.w3.org/2000/svg">
<path d="M3.23974 34.6699V43.4867L11.9913 34.6699H12.1109V46.596H10.5671V37.8553L1.8808 46.596H1.69598V34.6699H3.23974Z" fill="#F20053"/>
<path d="M17.0248 36.018V46.596H15.5028V34.6699H21.5256V36.018H17.0248Z" fill="#F20053"/>
<path d="M23.6129 34.6699H25.1349V36.866C25.7365 36.0252 26.4322 35.3983 27.2222 34.9852C28.0195 34.5721 28.9037 34.3655 29.8749 34.3655C31.5708 34.3655 33.0204 34.9743 34.2235 36.1919C35.4266 37.4095 36.0281 38.8772 36.0281 40.5949C36.0281 42.3488 35.4302 43.8382 34.2343 45.0631C33.0385 46.2807 31.5998 46.8895 29.9184 46.8895C28.9689 46.8895 28.0956 46.6938 27.2983 46.3024C26.5011 45.911 25.78 45.324 25.1349 44.5412V50.9445H23.6129V34.6699ZM29.7444 35.844C28.4253 35.844 27.3092 36.3079 26.396 37.2356C25.4828 38.1633 25.0262 39.3157 25.0262 40.6927C25.0262 41.5987 25.2291 42.4177 25.635 43.1497C26.0409 43.8745 26.6207 44.447 27.3744 44.8674C28.1282 45.2877 28.9254 45.4979 29.7662 45.4979C30.5924 45.4979 31.3679 45.2841 32.0927 44.8565C32.8247 44.4289 33.4045 43.831 33.8321 43.0627C34.267 42.2945 34.4844 41.4936 34.4844 40.6601C34.4844 39.8049 34.2706 39.0004 33.843 38.2466C33.4154 37.4856 32.8392 36.895 32.1144 36.4746C31.3969 36.0542 30.6069 35.844 29.7444 35.844Z" fill="#F20053"/>
<path d="M37.3871 34.6699H39.0069L43.1055 43.8563L47.0844 34.6699H48.726L41.6052 50.9445H39.9854L42.2792 45.6936L37.3871 34.6699Z" fill="#F20053"/>
<path d="M68.8926 46.596H51.0743V34.6699H52.618V45.15H59.1844V34.6699H60.7499V45.15H67.3272V34.6699H68.8926V46.596Z" fill="#F20053"/>
<path d="M72.2737 34.6699H73.8174V39.6926L79.3293 34.6699H81.471L75.4264 40.1274L81.9493 46.596H79.775L74.2958 41.0732L73.8174 41.5081V46.596H72.2737V34.6699Z" fill="#F20053"/>
<path d="M85.0585 34.6699V43.4867L93.8101 34.6699H93.9297V46.596H92.3859V37.8553L83.6996 46.596H83.5148V34.6699H85.0585Z" fill="#F20053"/>
<path d="M102.997 45.2914L107.606 34.6699H108.4L112.966 45.2914H114.401V48.118H112.922V46.596H103.062V48.1832H101.551V45.2914H102.997ZM107.965 37.029L104.486 45.2914H111.313L107.965 37.029Z" fill="#F20053"/>
<path d="M126.555 46.596H124.924L120.934 37.9205L116.977 46.596H115.336L120.793 34.6699H121.065L126.555 46.596Z" fill="#F20053"/>
<path d="M133.926 41.2581H132.828L129.436 46.596H127.783L131.371 41.1059C130.472 40.9971 129.748 40.6601 129.197 40.0948C128.646 39.5222 128.371 38.8192 128.371 37.9857C128.371 36.9348 128.689 36.1195 129.327 35.5396C129.965 34.9598 130.802 34.6699 131.839 34.6699H135.47V46.596H133.926V41.2581ZM133.926 35.9963H132.926C131.94 35.9963 131.28 36.0579 130.947 36.1811C130.614 36.3043 130.349 36.5181 130.153 36.8225C129.958 37.1269 129.86 37.5364 129.86 38.051C129.86 38.5366 129.987 38.9388 130.24 39.2577C130.501 39.5766 130.788 39.7723 131.099 39.8448C131.411 39.9172 132.02 39.9535 132.926 39.9535H133.926V35.9963Z" fill="#F20053"/>
<path d="M142.558 34.6699H144.178L148.276 43.8563L152.255 34.6699H153.897L146.776 50.9445H145.156L147.45 45.6936L142.558 34.6699Z" fill="#F20053"/>
<path d="M168.899 34.6699H169.323L173.368 46.596H171.78L168.834 37.8118L164.246 46.596H163.964L159.376 37.8118L156.441 46.596H154.832L158.898 34.6699H159.322L164.105 43.9977L168.899 34.6699Z" fill="#F20053"/>
<path d="M184.13 40.8558H177.205V46.596H175.662V34.6699H177.205V39.4099H184.13V34.6699H185.663V46.596H184.13V40.8558Z" fill="#F20053"/>
<path d="M190.577 39.3882H192.034C193.194 39.3882 194.103 39.4824 194.763 39.6708C195.422 39.852 195.988 40.2579 196.459 40.8884C196.93 41.5117 197.165 42.2256 197.165 43.0301C197.165 44.0158 196.825 44.8565 196.143 45.5523C195.462 46.2481 194.422 46.596 193.023 46.596H189.055V34.6699H190.577V39.3882ZM190.632 40.8014V45.3022H192.393C194.473 45.3022 195.513 44.5702 195.513 43.1062C195.513 42.6931 195.401 42.2872 195.176 41.8886C194.958 41.4827 194.632 41.2001 194.197 41.0406C193.77 40.8812 193.016 40.8014 191.936 40.8014H190.632ZM199.296 34.6699H200.84V46.596H199.296V34.6699Z" fill="#F20053"/>
<path d="M202.764 34.6699H204.601L207.754 39.0946L210.918 34.6699H212.755L208.667 40.334L213.266 46.596H211.407L207.754 41.5842L204.156 46.596H202.329L206.841 40.334L202.764 34.6699Z" fill="#F20053"/>
<path d="M221.344 45.2914L225.953 34.6699H226.747L231.313 45.2914H232.748V48.118H231.269V46.596H221.409V48.1832H219.898V45.2914H221.344ZM226.312 37.029L222.833 45.2914H229.66L226.312 37.029Z" fill="#F20053"/>
<path d="M244.848 42.6387L246.131 43.3236C245.717 44.1571 245.232 44.8275 244.674 45.3349C244.116 45.8422 243.489 46.2299 242.793 46.4981C242.097 46.759 241.311 46.8895 240.434 46.8895C238.491 46.8895 236.973 46.2553 235.879 44.987C234.784 43.7114 234.237 42.2727 234.237 40.671C234.237 39.1562 234.701 37.8082 235.629 36.6268C236.803 35.1193 238.379 34.3655 240.358 34.3655C242.38 34.3655 244 35.1374 245.217 36.6812C246.08 37.7683 246.515 39.1236 246.522 40.7471H235.813C235.842 42.1386 236.285 43.2801 237.14 44.1716C237.995 45.0558 239.05 45.4979 240.303 45.4979C240.912 45.4979 241.503 45.3928 242.075 45.1827C242.648 44.9652 243.134 44.6826 243.532 44.3347C243.938 43.9868 244.377 43.4215 244.848 42.6387ZM244.848 39.4316C244.645 38.6127 244.348 37.9604 243.956 37.4748C243.565 36.9819 243.047 36.5869 242.402 36.2898C241.757 35.9854 241.079 35.8332 240.369 35.8332C239.202 35.8332 238.198 36.2101 237.357 36.9638C236.748 37.5146 236.288 38.3372 235.977 39.4316H244.848Z" fill="#F20053"/>
<path d="M248.414 34.6699H256.252V35.9963H253.11V46.596H251.555V35.9963H248.414V34.6699Z" fill="#F20053"/>
<path d="M268.374 42.6387L269.656 43.3236C269.243 44.1571 268.758 44.8275 268.2 45.3349C267.642 45.8422 267.015 46.2299 266.319 46.4981C265.623 46.759 264.837 46.8895 263.96 46.8895C262.017 46.8895 260.499 46.2553 259.405 44.987C258.31 43.7114 257.763 42.2727 257.763 40.671C257.763 39.1562 258.227 37.8082 259.155 36.6268C260.329 35.1193 261.905 34.3655 263.884 34.3655C265.906 34.3655 267.526 35.1374 268.743 36.6812C269.606 37.7683 270.041 39.1236 270.048 40.7471H259.339C259.368 42.1386 259.81 43.2801 260.666 44.1716C261.521 45.0558 262.575 45.4979 263.829 45.4979C264.438 45.4979 265.029 45.3928 265.601 45.1827C266.174 44.9652 266.66 44.6826 267.058 44.3347C267.464 43.9868 267.902 43.4215 268.374 42.6387ZM268.374 39.4316C268.171 38.6127 267.873 37.9604 267.482 37.4748C267.091 36.9819 266.573 36.5869 265.927 36.2898C265.282 35.9854 264.605 35.8332 263.895 35.8332C262.728 35.8332 261.724 36.2101 260.883 36.9638C260.274 37.5146 259.814 38.3372 259.502 39.4316H268.374Z" fill="#F20053"/>
<path d="M274.809 34.6699V43.4867L283.561 34.6699H283.681V46.596H282.137V37.8553L273.451 46.596H273.266V34.6699H274.809ZM274.592 29.8865H276.049C276.288 30.2634 276.614 30.546 277.027 30.7345C277.448 30.9229 277.948 31.0171 278.528 31.0171C279.107 31.0171 279.578 30.9338 279.941 30.7671C280.303 30.6004 280.644 30.3068 280.963 29.8865H282.354C282.202 30.546 281.793 31.0968 281.126 31.5389C280.466 31.9738 279.593 32.1912 278.506 32.1912C277.44 32.1912 276.567 31.9738 275.886 31.5389C275.212 31.1041 274.781 30.5533 274.592 29.8865Z" fill="#F20053"/>
<path fill-rule="evenodd" clip-rule="evenodd" d="M124.069 17.8118V18.9499V19.9888V24.5408C124.069 26.9157 122.486 28.499 119.715 28.499C116.944 28.499 115.361 26.9157 115.361 24.5408V3.95819C115.361 1.58328 116.944 0 119.715 0C122.486 0 124.069 1.58328 124.069 3.95819V9.49965V10.6871V11.7756V13.26V14.4969V15.239V16.2286V16.9708V17.8118ZM1.58328 20.1868C1.58328 20.1868 0 21.77 0 24.1449C0 26.5199 1.58328 28.1031 4.35401 28.1031H20.5826C23.3533 28.1031 24.9366 26.5199 24.9366 24.1449C24.9366 21.77 23.3533 20.1868 20.5826 20.1868H13.062V19.7909L22.9575 8.3122C22.9575 8.3122 24.5408 6.72892 24.5408 4.35401C24.5408 1.97909 22.9575 0.395818 20.1868 0.395818H4.74983C1.97909 0.395818 0.395819 1.97909 0.395819 4.35401C0.395819 6.72892 1.97909 8.3122 4.74983 8.3122H12.2704V8.70801L1.58328 20.1868ZM48.0873 8.3122C50.8581 8.3122 52.4414 6.72892 52.4414 4.35401C52.4414 1.97909 50.8581 0.395818 48.0873 0.395818H33.0462C30.2755 0.395818 28.6922 1.97909 28.6922 4.35401V24.1449C28.6922 26.5199 30.2755 28.1031 33.0462 28.1031H48.4832C51.2539 28.1031 52.8372 26.5199 52.8372 24.1449C52.8372 21.77 51.2539 20.1868 48.4832 20.1868H37.4002V17.8118V16.2286V14.2495V12.023V10.6871V8.3122H48.0873ZM68.5134 18.8038L74.3923 26.5199C74.3923 26.5199 75.9756 28.499 77.9547 28.499C81.1212 28.499 82.7045 26.9157 82.7045 24.5408C82.7045 22.9575 81.1212 20.9784 81.1212 20.9784L77.163 16.2286V15.8328C77.163 15.8328 81.517 14.2495 81.517 9.30174C81.517 3.95819 77.9547 0.395818 69.6425 0.395818H61.3303C58.5595 0.395818 56.9763 1.97909 56.9763 4.35401V24.5408C56.9763 26.9157 58.5595 28.499 61.3303 28.499C64.101 28.499 65.6843 26.9157 65.6843 24.5408L65.8048 18.2109V10.8851L65.8049 10.8851V7.12474H69.6425C71.4237 7.12474 72.4132 8.11429 72.4132 9.30174C72.4132 10.0627 72.0068 10.7424 71.2462 11.1324L71.2473 11.1325L69.3958 12.3668C67.2276 13.8123 66.8194 16.8322 68.5261 18.8015L68.5134 18.8038ZM106.472 8.3122C109.243 8.3122 110.826 6.72892 110.826 4.35401C110.826 1.97909 109.243 0.395818 106.472 0.395818H91.4311C88.6603 0.395818 87.077 1.97909 87.077 4.35401V24.1449C87.077 26.5199 88.6603 28.1031 91.4311 28.1031H106.868C109.639 28.1031 111.222 26.5199 111.222 24.1449C111.222 21.77 109.639 20.1868 106.868 20.1868H95.7851V17.8118V16.2286V14.4969V12.4683V10.6871V8.3122H106.472Z" fill="#1057C0"/>
<rect x="38.0976" y="11.3796" width="14.3484" height="5.93728" rx="2.96864" fill="#F20053"/>
<rect x="95.9861" y="11.3796" width="14.3484" height="5.93728" rx="2.96864" fill="#F20053"/>
<path d="M135.13 1.1271C136.91 -0.483437 139.665 -0.352309 141.282 1.41998C142.9 3.19226 142.768 5.93458 140.988 7.54511L132.822 14.933C131.042 16.5435 128.288 16.4124 126.67 14.6401C125.053 12.8678 125.184 10.1255 126.965 8.51495L135.13 1.1271Z" fill="#F20053"/>
<path d="M141.961 21.0681C143.513 22.8976 143.282 25.6333 141.444 27.1785C139.607 28.7238 136.859 28.4933 135.307 26.6638L125.711 15.3519C124.159 13.5223 124.39 10.7866 126.228 9.24137C128.065 7.69614 130.813 7.9266 132.365 9.75611L141.961 21.0681Z" fill="#F20053"/>
<path d="M202.333 2.26028C203.48 0.163635 206.126 -0.613946 208.241 0.523502C210.357 1.66095 211.141 4.2827 209.994 6.37934L199.172 26.1488C198.024 28.2454 195.379 29.023 193.263 27.8856C191.148 26.7481 190.363 24.1264 191.511 22.0297L202.333 2.26028Z" fill="#F20053"/>
<path d="M210.309 2.26028C209.161 0.163635 206.516 -0.613946 204.4 0.523502C202.285 1.66095 201.5 4.2827 202.648 6.37934L213.469 26.1488C214.617 28.2454 217.262 29.023 219.378 27.8856C221.494 26.7481 222.278 24.1264 221.13 22.0297L210.309 2.26028Z" fill="#F20053"/>
<path d="M195.728 20.0589C193.321 20.0589 191.37 21.9926 191.37 24.3779C191.37 26.7632 193.321 28.6969 195.728 28.6969H217.033C219.439 28.6969 221.391 26.7632 221.391 24.3779C221.391 21.9926 219.439 20.0589 217.033 20.0589L195.728 20.0589Z" fill="#F20053"/>
<path d="M264.986 2.26028C266.115 0.163635 268.718 -0.613946 270.799 0.523502C272.88 1.66095 273.652 4.2827 272.523 6.37934L261.876 26.1488C260.747 28.2454 258.144 29.023 256.063 27.8856C253.981 26.7481 253.209 24.1264 254.339 22.0297L264.986 2.26028Z" fill="#F20053"/>
<path d="M272.833 2.26028C271.704 0.163635 269.101 -0.613946 267.02 0.523502C264.939 1.66095 264.167 4.2827 265.296 6.37934L275.943 26.1488C277.072 28.2454 279.675 29.023 281.756 27.8856C283.838 26.7481 284.61 24.1264 283.48 22.0297L272.833 2.26028Z" fill="#F20053"/>
<path d="M258.487 20.0589C256.119 20.0589 254.2 21.9926 254.2 24.3779C254.2 26.7632 256.119 28.6969 258.487 28.6969H279.449C281.817 28.6969 283.736 26.7632 283.736 24.3779C283.736 21.9926 281.817 20.0589 279.449 20.0589L258.487 20.0589Z" fill="#F20053"/>
<path d="M225.617 4.23396C225.617 1.89561 227.495 0 229.813 0C232.13 0 234.009 1.89561 234.009 4.23396V24.4629C234.009 26.8013 232.13 28.6969 229.813 28.6969C227.495 28.6969 225.617 26.8013 225.617 24.4629V4.23396Z" fill="#1057C0"/>
<path d="M245.664 20.2289C247.982 20.2289 249.861 22.1245 249.861 24.4629C249.861 26.8013 247.982 28.6969 245.664 28.6969H229.813C227.495 28.6969 225.617 26.8013 225.617 24.4629C225.617 22.1245 227.495 20.2289 229.813 20.2289H245.664Z" fill="#1057C0"/>
<path fill-rule="evenodd" clip-rule="evenodd" d="M175.243 6.84908H171.528V9.89639L171.522 9.8955V17.4866L171.513 19.1371V21.353H176.449C178.258 21.353 179.85 20.0101 179.85 18.8014C179.85 17.7237 178.535 16.601 176.967 16.3704L177.129 16.3276L176.749 16.2801C173.694 15.8981 173.416 11.7563 176.057 10.7884C176.202 10.7551 176.346 10.7138 176.487 10.6656C176.535 10.6553 176.584 10.646 176.634 10.6377L176.585 10.6305C177.698 10.22 178.613 9.38424 178.613 8.65854C178.613 7.65132 176.851 6.84908 175.243 6.84908ZM162.78 4.02887C162.821 1.61155 164.388 0 167.202 0H175.243C183.685 0 186.901 3.2231 186.901 7.45341C186.901 11.6837 182.479 12.8924 182.479 12.8924V13.2953C182.479 13.2953 188.509 14.5039 188.509 19.9429C188.509 24.5761 184.891 28.2021 176.449 28.2021H167.202C164.388 28.2021 162.78 26.5905 162.78 24.1732V4.02887Z" fill="#1057C0"/>
</svg>
