<svg width="22" height="22" viewBox="0 0 22 22" fill="none" xmlns="http://www.w3.org/2000/svg">
<g clip-path="url(#clip0)">
<path fill-rule="evenodd" clip-rule="evenodd" d="M18.3694 3.62285C16.4142 1.67463 13.8138 0.60124 11.0435 0.600098C5.33501 0.600098 0.689143 5.2236 0.686846 10.9063C0.686081 12.7229 1.16291 14.4961 2.06925 16.0592L0.599976 21.4001L6.09018 19.9668C7.60296 20.7881 9.30606 21.2208 11.0393 21.2213H11.0436C16.7514 21.2213 21.3978 16.5975 21.4 10.9145C21.4011 8.16041 20.3249 5.57095 18.3694 3.62285ZM11.0435 19.4807H11.0399C9.49536 19.4801 7.98055 19.067 6.65873 18.2866L6.34454 18.1008L3.08657 18.9514L3.95617 15.7902L3.75143 15.4661C2.88974 14.1021 2.43472 12.5256 2.43549 10.9069C2.43727 6.18362 6.29888 2.34088 11.0469 2.34088C13.3461 2.34164 15.5074 3.23387 17.1326 4.85315C18.7578 6.47244 19.6522 8.6248 19.6515 10.9139C19.6494 15.6376 15.7881 19.4807 11.0435 19.4807ZM15.7651 13.0646C15.5064 12.9356 14.2341 12.3128 13.9968 12.2267C13.7598 12.1408 13.5871 12.098 13.4148 12.3557C13.2422 12.6134 12.7463 13.1936 12.5953 13.3654C12.4442 13.5373 12.2935 13.5588 12.0346 13.4299C11.7758 13.301 10.9421 13.0289 9.95357 12.1516C9.18436 11.4687 8.66505 10.6253 8.51402 10.3676C8.36324 10.1096 8.51274 9.98371 8.62755 9.84203C8.90768 9.49583 9.18819 9.13287 9.27442 8.9611C9.36078 8.78921 9.31754 8.63877 9.25274 8.50991C9.18819 8.38105 8.67066 7.11343 8.45508 6.59762C8.24486 6.09564 8.0317 6.16344 7.87276 6.15557C7.72197 6.14808 7.54938 6.14655 7.37679 6.14655C7.20432 6.14655 6.92394 6.21092 6.68667 6.46889C6.44953 6.72673 5.7811 7.34969 5.7811 8.61731C5.7811 9.88494 6.70835 11.1095 6.8377 11.2814C6.96705 11.4533 8.6625 14.0546 11.2583 15.17C11.8757 15.4356 12.3576 15.5939 12.7336 15.7126C13.3535 15.9086 13.9175 15.8809 14.3634 15.8147C14.8607 15.7407 15.8943 15.1916 16.1102 14.5901C16.3258 13.9884 16.3258 13.4729 16.261 13.3654C16.1964 13.258 16.0238 13.1936 15.7651 13.0646Z" fill="white"/>
</g>
<defs>
<clipPath id="clip0">
<rect width="20.8" height="20.8" fill="white" transform="translate(0.599976 0.600098)"/>
</clipPath>
</defs>
</svg>
